<?xml version="1.0" encoding="UTF-8"?>
<svg width="64" height="64" fill="#ffffff" version="1.1" viewBox="0 0 64 64" xmlns="http://www.w3.org/2000/svg">
 <path d="m43.005 39.649c0.62439-1.0927 1.0927-2.3415 1.0927-3.7464 0-3.9024-3.122-7.0244-7.0244-7.0244-3.9024 0-7.0244 3.1219-7.0244 7.0244 0 3.9024 3.122 7.0244 7.0244 7.0244 1.4049 0 2.6537-0.4683 3.7463-1.0927l4.9951 4.9951 2.1854-2.1854zm-5.9317 0.15609c-2.1854 0-3.9024-1.7171-3.9024-3.9024 0-2.1854 1.7171-3.9024 3.9024-3.9024 2.1854 0 3.9024 1.7171 3.9024 3.9024 0 2.1854-1.7171 3.9024-3.9024 3.9024zm-5.4634 4.6829v3.1219c-8.6166 0-15.61-6.9932-15.61-15.61 0-8.6166 6.9932-15.61 15.61-15.61 7.5551 0 13.846 5.3697 15.298 12.488h-3.2312c-0.99902-3.84-3.7464-6.9776-7.3834-8.4449v0.64c0 1.7171-1.4049 3.122-3.122 3.122h-3.122v3.122c0 0.85854-0.70244 1.561-1.561 1.561h-3.122v3.1219h3.122v4.6829h-1.561l-7.4771-7.4771c-0.20292 0.90535-0.32781 1.8263-0.32781 2.7941 0 6.8839 5.6039 12.488 12.488 12.488z"
       stroke-width="1.561"/>
</svg>